# xmcd
#
# Track frame offsets:
#	150
#	12872
#	32329
#	47815
#	64065
#	77239
#	95592
#	109884
#	123761
#	135653
#	147832
#	157093
#	171387
#	183567
#	194698
#
# Disc length: 2763 seconds
#
# Revision: 0
# Processed by: cddbd v1.4PL0 Copyright (c) Steve Scherf et al.
# Submitted via: audiograbber 1.82.00
#
DISCID=d30ac90f
DTITLE=Various Artist - CB6137
DYEAR=1900
DGENRE=Country
TTITLE0=Conlee, John - Backside Of Thirty
TTITLE1=Watson, Gene - Farewell Party
TTITLE2=Mandrell, Barbara - Married But Not To Each Other
TTITLE3=Bellamy Brothers, The - If I Said You Have A Beautiful Body
TTITLE4=Rich, Charlie - Very Special Love Song, A
TTITLE5=Gayle, Crystal - You'll Never Miss A Real Good Thing
TTITLE6=Twitty, Conway - After All The Good Is Gone
TTITLE7=Williams, Don - I Wouldn't Want To Live If You Didn't Love Me
TTITLE8=Fargo, Donna - Superman
TTITLE9=Stampley, Joe - Roll On Big Mama
TTITLE10=Cash, Johnny - Five Feet High And Rising
TTITLE11=West, Dottie - Lesson In Leavin', A
TTITLE12=Rodriguez, Merle - Dance With Me (Just One More Time)
TTITLE13=Haggard, Merle - Grandma Harp
TTITLE14=Smith, Connie - Just One Time
EXTD=
EXTT0=
EXTT1=
EXTT2=
EXTT3=
EXTT4=
EXTT5=
EXTT6=
EXTT7=
EXTT8=
EXTT9=
EXTT10=
EXTT11=
EXTT12=
EXTT13=
EXTT14=
PLAYORDER=
